<?xml version="1.0" encoding="utf-8"?>
<!-- Generator: Adobe Illustrator 22.0.1, SVG Export Plug-In . SVG Version: 6.00 Build 0)  -->
<svg version="1.1" id="Layer_1" xmlns="http://www.w3.org/2000/svg" xmlns:xlink="http://www.w3.org/1999/xlink" x="0px" y="0px"
	 viewBox="0 0 313.2 129.2" style="enable-background:new 0 0 313.2 129.2;" xml:space="preserve">
<style type="text/css">
	.st0{fill:#FFFFFF;}
	.st1{fill:#A6FF33;}
</style>
<g>
	<g>
		<path class="st0" d="M127.7,93c-7,3.5-15.6,4.6-22.2,4.6c-17.1,0-25.9-9.6-25.9-25.1c0-18.2,13.2-37.1,34.8-37.1
			c12.1,0,20.7,6.7,20.7,17.8c0,15.2-14.8,20.7-38.7,20.1c0,1.7,0.6,4.4,1.8,6.1c2.3,3,6.3,4.6,11.5,4.6c6.5,0,12-1.5,16.7-3.8
			L127.7,93z M112.2,48.3c-8.2,0-12.8,6.7-14,12.3c13.7,0.1,20.5-1.8,20.5-7.2C118.7,50.3,116.2,48.3,112.2,48.3z"/>
		<path class="st0" d="M200.3,9.8l-12.1,63.4c-1.5,7.7-2.6,16.1-2.8,23.2h-16.1l0.9-9.6h-0.2c-5.2,7.9-12.6,11-19.5,11
			c-10.1,0-18.5-8-18.5-22.6c0-20.7,15-39.8,37.6-39.8c2.4,0,5.6,0.4,8.2,1.3l5.1-27H200.3z M175,50.8c-1.3-1.1-4-2.1-7-2.1
			c-10.5,0-17.9,12.2-17.9,23.7c0,7.2,3.2,11.2,8.3,11.2c5,0,11.2-5.4,13.5-16.7L175,50.8z"/>
		<path class="st0" d="M193.3,104.7c3.3,2,10.6,3.3,15.6,3.3c8.8,0,15.4-3.9,17.8-15.9l1-5h-0.2c-4.6,6-10,8.8-17.1,8.8
			c-11.8,0-19-9.6-19.1-21.2c0-19.8,14-39.3,40-39.3c8.4,0,15.9,1.5,22.1,4.1l-9,49.1c-2.1,11-5.4,20.7-12.6,26.5
			c-6.5,5.1-15.1,6.7-23,6.7s-15.4-1.5-19.4-3.8L193.3,104.7z M234.3,50c-1.3-0.6-3.9-1.1-6.3-1.1c-10.6,0-18.2,11.8-18.2,23.2
			c0,6,2.7,10.4,8,10.4c5.7,0,11.6-6.3,13.4-16.5L234.3,50z"/>
		<path class="st0" d="M298.2,93c-7,3.5-15.6,4.6-22.2,4.6c-17.1,0-25.9-9.6-25.9-25.1c0-18.2,13.2-37.1,34.8-37.1
			c12.1,0,20.7,6.7,20.7,17.8c0,15.2-14.8,20.7-38.7,20.1c0,1.7,0.6,4.4,1.8,6.1c2.3,3,6.3,4.6,11.5,4.6c6.5,0,12-1.5,16.7-3.8
			L298.2,93z M282.7,48.3c-8.2,0-12.8,6.7-14,12.3c13.7,0.1,20.5-1.8,20.5-7.2C289.2,50.3,286.7,48.3,282.7,48.3z"/>
	</g>
	<polygon class="st1" points="35.9,12.5 18.4,12.5 12.5,43.2 30.8,39.3 	"/>
	<polygon class="st1" points="83.4,12.5 65.8,12.5 62,32.6 80.3,28.7 	"/>
	<polygon class="st0" points="67.1,34.3 64.8,46.3 34.9,46.3 35.9,41 17.6,44.9 7.8,96.4 25.4,96.4 32,61.9 61.7,61.9 55.3,96.4 
		72.8,96.4 85.4,30.4 	"/>
</g>
</svg>
